<svg width="23" height="20" viewBox="0 0 23 20" fill="none" xmlns="http://www.w3.org/2000/svg">
<path d="M2.4 12.5C1.075 12.5 0 11.6602 0 10.625L0 9.375C0 8.33984 1.075 7.5 2.4 7.5L20 7.5C21.325 7.5 22.4 8.33984 22.4 9.375V10.625C22.4 11.6602 21.325 12.5 20 12.5H2.4ZM12 20C10.675 20 9.6 19.1602 9.6 18.125V16.875C9.6 15.8398 10.675 15 12 15H20C21.325 15 22.4 15.8398 22.4 16.875V18.125C22.4 19.1602 21.325 20 20 20H12ZM3.2 3.125V1.875C3.2 0.839844 4.275 0 5.6 0H20C21.325 0 22.4 0.839844 22.4 1.875V3.125C22.4 4.16016 21.325 5 20 5L5.6 5C4.275 5 3.2 4.16016 3.2 3.125Z" fill="#3776AA"/>
</svg>
