<svg width="30" height="30" viewBox="0 0 30 30" fill="none" xmlns="http://www.w3.org/2000/svg">
<path d="M29.4316 9.3577L15.7207 0.217524C15.252 -0.0695711 14.7539 -0.0754302 14.2793 0.217524L0.568359 9.3577C0.216797 9.59206 0 10.0081 0 10.4299V19.5701C0 19.9861 0.216797 20.4079 0.568359 20.6423L14.2793 29.7825C14.748 30.0696 15.2461 30.0754 15.7207 29.7825L29.4316 20.6423C29.7832 20.4079 30 19.9919 30 19.5701V10.4299C30 10.0139 29.7832 9.59206 29.4316 9.3577ZM16.2891 3.69782L26.3848 10.4299L21.8789 13.4415L16.2891 9.70924V3.69782ZM13.7109 3.69782V9.70924L8.12109 13.4415L3.61523 10.4299L13.7109 3.69782ZM2.57812 12.838L5.80664 15L2.57812 17.1561V12.838ZM13.7109 26.2963L3.61523 19.5701L8.12109 16.5585L13.7109 20.2908V26.2963ZM15 18.0467L10.4473 15L15 11.9533L19.5527 15L15 18.0467ZM16.2891 26.3022V20.2908L21.8789 16.5585L26.3848 19.5701L16.2891 26.3022ZM27.4219 17.162L24.1934 15L27.4219 12.838V17.1561V17.162Z" fill="#3776AA"/>
</svg>
