<svg width="35" height="35" viewBox="0 0 35 35" fill="none" xmlns="http://www.w3.org/2000/svg">
<g clip-path="url(#clip0_123_6)">
<path d="M16.3539 0.00941862C16.2786 0.0162602 16.0391 0.0402059 15.8236 0.0573099C10.8524 0.505436 6.19599 3.18735 3.24682 7.30942C1.60459 9.60136 0.554252 12.2012 0.15738 14.9549C0.0171065 15.9162 0 16.2001 0 17.5034C0 18.8068 0.0171065 19.0907 0.15738 20.0519C1.1085 26.6233 5.78543 32.1445 12.1285 34.1901C13.2644 34.5562 14.4619 34.8059 15.8236 34.9564C16.3539 35.0145 18.6461 35.0145 19.1764 34.9564C21.5269 34.6964 23.5181 34.1149 25.4819 33.1126C25.783 32.9586 25.8412 32.9176 25.8001 32.8834C25.7727 32.8629 24.4897 31.1422 22.9501 29.0623L20.1515 25.2823L16.6447 20.093C14.7151 17.24 13.1276 14.907 13.1139 14.907C13.1002 14.9036 13.0865 17.2092 13.0797 20.0246C13.0694 24.9539 13.066 25.1524 13.0044 25.2687C12.9154 25.4363 12.847 25.5047 12.7033 25.58C12.5938 25.6347 12.498 25.6449 11.9814 25.6449H11.3895L11.2322 25.5457C11.1295 25.4807 11.0543 25.3952 11.0029 25.296L10.9311 25.1421L10.9379 18.2834L10.9482 11.4212L11.0543 11.2878C11.109 11.216 11.2253 11.1236 11.3074 11.0792C11.4477 11.0107 11.5024 11.0039 12.0943 11.0039C12.7923 11.0039 12.9086 11.0313 13.0899 11.2297C13.1413 11.2844 15.0401 14.1442 17.3118 17.5889C19.5836 21.0337 22.6901 25.7373 24.216 28.0464L26.9873 32.2437L27.1276 32.1513C28.3695 31.344 29.6833 30.1946 30.7234 28.9973C32.937 26.4557 34.3636 23.3564 34.8426 20.0519C34.9829 19.0907 35 18.8068 35 17.5034C35 16.2001 34.9829 15.9162 34.8426 14.9549C33.8915 8.38356 29.2146 2.86237 22.8715 0.816729C21.7527 0.454124 20.5621 0.204405 19.2278 0.0538891C18.8993 0.019681 16.6378 -0.0179478 16.3539 0.00941862ZM23.5181 10.5934C23.6823 10.6755 23.8157 10.8329 23.8636 10.9971C23.891 11.086 23.8978 12.988 23.891 17.2742L23.8807 23.4248L22.7962 21.7623L21.7082 20.0998V15.6288C21.7082 12.7382 21.7219 11.1134 21.7424 11.0347C21.7972 10.8431 21.9169 10.6926 22.0811 10.6037C22.2214 10.5318 22.2727 10.525 22.8099 10.525C23.3162 10.525 23.4052 10.5318 23.5181 10.5934Z" fill="black"/>
</g>
<defs>
<clipPath id="clip0_123_6">
<rect width="35" height="35" fill="white"/>
</clipPath>
</defs>
</svg>
