<svg width="35" height="40" viewBox="0 0 35 40" fill="none" xmlns="http://www.w3.org/2000/svg">
<path d="M17.4453 39.3711C16.9219 39.3711 16.3906 39.2305 15.9297 38.9648L11.1094 36.1133C10.3906 35.707 10.7422 35.5664 10.9766 35.4883C11.9375 35.1523 12.1328 35.082 13.1563 34.4961C13.2656 34.4336 13.4063 34.457 13.5156 34.5273L17.2188 36.7227C17.3516 36.8008 17.5391 36.8008 17.6641 36.7227L32.0937 28.3945C32.2266 28.3164 32.3125 28.1602 32.3125 28.0039V11.3477C32.3125 11.1836 32.2266 11.0352 32.0859 10.9492L17.6641 2.62891C17.5312 2.55078 17.3516 2.55078 17.2188 2.62891L2.80469 10.957C2.66406 11.0352 2.57812 11.1914 2.57812 11.3555V28.0039C2.57812 28.1602 2.66406 28.3164 2.80469 28.3867L6.75781 30.668C8.90625 31.7383 10.2188 30.4805 10.2188 29.207V12.7695C10.2188 12.5352 10.4062 12.3555 10.6406 12.3555H12.4687C12.6953 12.3555 12.8906 12.5352 12.8906 12.7695V29.2148C12.8906 32.0742 11.3281 33.7148 8.61719 33.7148C7.78125 33.7148 7.125 33.7148 5.29688 32.8086L1.51563 30.6289C0.578125 30.0898 0 29.082 0 27.9961V11.3477C0 10.2695 0.578125 9.25391 1.51563 8.71484L15.9297 0.386719C16.8438 -0.128906 18.0547 -0.128906 18.9609 0.386719L33.3906 8.72266C34.3281 9.26172 34.9062 10.2695 34.9062 11.3555V28.0039C34.9062 29.082 34.3281 30.0898 33.3906 30.6367L18.9609 38.9648C18.5 39.2305 17.9766 39.3711 17.4453 39.3711ZM29.0938 22.957C29.0938 19.8398 26.9844 19.0117 22.5547 18.4258C18.0703 17.832 17.6172 17.5273 17.6172 16.4805C17.6172 15.6133 18 14.457 21.3203 14.457C24.2813 14.457 25.375 15.0977 25.8281 17.0977C25.8672 17.2852 26.0391 17.4258 26.2344 17.4258H28.1094C28.2266 17.4258 28.3359 17.3789 28.4141 17.293C28.4922 17.207 28.5312 17.0898 28.5234 16.9727C28.2344 13.5273 25.9453 11.9258 21.3203 11.9258C17.2031 11.9258 14.75 13.6602 14.75 16.5742C14.75 19.7305 17.1953 20.6055 21.1406 20.9961C25.8672 21.457 26.2344 22.1523 26.2344 23.082C26.2344 24.6914 24.9375 25.3789 21.8984 25.3789C18.0781 25.3789 17.2422 24.418 16.9609 22.5195C16.9297 22.3164 16.7578 22.168 16.5469 22.168H14.6797C14.4453 22.168 14.2656 22.3555 14.2656 22.582C14.2656 25.0117 15.5859 27.9102 21.9063 27.9102C26.4688 27.9023 29.0938 26.0977 29.0938 22.957Z" fill="#689F63"/>
</svg>
