<svg width="48" height="35" viewBox="0 0 48 35" fill="none" xmlns="http://www.w3.org/2000/svg">
<path fill-rule="evenodd" clip-rule="evenodd" d="M14.3454 33.8168C14.3104 33.7549 14.2793 33.691 14.2521 33.6253C14.0638 33.1897 14.0058 32.7088 14.0852 32.2408H2.9455L19.5004 3.10773L24.9353 12.6617L26.5112 9.87305L21.7735 1.52686C21.641 1.2863 20.8407 0 19.4611 0C18.8376 0 17.9441 0.270024 17.2175 1.5465L0.446548 31.0331C0.304172 31.2884 -0.388071 32.6287 0.299262 33.8168C0.613472 34.3569 1.28117 35 2.75402 35H16.8002C15.3371 35 14.6596 34.3667 14.3454 33.8168Z" fill="#01C58E"/>
<path fill-rule="evenodd" clip-rule="evenodd" d="M46.6402 31.0331L32.8591 6.75551C32.7167 6.50021 31.9214 5.20901 30.5369 5.20901C29.9134 5.20901 29.0199 5.47412 28.2933 6.7506L26.5111 9.87305L28.0969 12.6617L30.5516 8.31674L44.1854 32.2408H39.0009C39.0673 32.6363 39.0301 33.0423 38.8929 33.4191C38.864 33.5023 38.8279 33.5828 38.7849 33.6597L38.7407 33.7481C38.0436 34.9362 36.5364 35 36.2418 35H44.3523C44.6518 35 46.1541 34.9362 46.8513 33.7481C47.1606 33.208 47.3815 32.2998 46.6402 31.0331Z" fill="#108775"/>
<path fill-rule="evenodd" clip-rule="evenodd" d="M38.7407 33.7481L38.7849 33.6597C38.8279 33.5828 38.864 33.5023 38.8929 33.4191C39.0301 33.0423 39.0673 32.6363 39.0009 32.2408C38.9245 31.8143 38.7715 31.4051 38.5493 31.0331L28.1067 12.6617L26.5111 9.87306L24.9253 12.6617L14.4877 31.0331C14.285 31.4095 14.1488 31.8181 14.0851 32.2408C14.0011 32.7074 14.0539 33.1882 14.2373 33.6253C14.2644 33.691 14.2956 33.7549 14.3306 33.8168C14.6448 34.3569 15.3125 35 16.7853 35H36.227C36.5363 35 38.0436 34.9362 38.7407 33.7481ZM26.5111 15.4503L36.0552 32.2408H16.9719L26.5111 15.4503Z" fill="#2F495E"/>
</svg>
